<?xml version="1.0" encoding="utf-8"?>
<!-- Generator: Adobe Illustrator 25.0.0, SVG Export Plug-In . SVG Version: 6.00 Build 0)  -->
<svg version="1.1" xmlns="http://www.w3.org/2000/svg" xmlns:xlink="http://www.w3.org/1999/xlink" x="0px" y="0px"
	 viewBox="0 0 501 251" style="enable-background:new 0 0 501 251;" xml:space="preserve">
<g id="Layer_1">
	<g>
		<path d="M260.1,104h-4.11l13-32.14h4.39L286.45,104h-4.39l-3.96-10.12h-10.13l1.09-3.37h7.71l-5.72-14.57L260.1,104z"/>
		<path d="M290.2,104V80.4h2.68l0.71,3.01c1.97-2.01,4.34-3.01,7.11-3.01v3.46c-2.69,0-4.86,1-6.53,2.99V104H290.2z"/>
		<path d="M304.66,76.58h2.49L308,80.4h6.08v3.37h-5.46v13.55c0,2.2,0.91,3.3,2.72,3.3h2.74V104h-3.77c-3.77,0-5.66-2.12-5.66-6.36
			V76.58z"/>
		<path d="M323.51,71.86v3.93h-3.96v-3.93H323.51z M323.51,80.4V104h-3.96V80.4H323.51z"/>
		<path d="M259.09,159.24V127.1h11.14c10.14,0,15.21,5.07,15.21,15.2c0,11.3-5.07,16.95-15.21,16.95H259.09z M270.23,155.87
			c7.5,0,11.25-4.53,11.25-13.58c0-7.88-3.75-11.82-11.25-11.82h-7.18v25.4H270.23z"/>
		<path d="M295.19,127.1v3.93h-3.96v-3.93H295.19z M295.19,135.64v23.6h-3.96v-23.6H295.19z"/>
		<path d="M311.32,135.64c6.4,0,9.6,3.32,9.6,9.96c0,0.95-0.06,1.96-0.19,3.04h-15.79c0,4.83,2.68,7.24,8.06,7.24
			c2.56,0,4.83-0.3,6.81-0.9v3.37c-1.99,0.6-4.4,0.9-7.24,0.9c-7.73,0-11.59-4.02-11.59-12.07
			C300.98,139.49,304.42,135.64,311.32,135.64z M304.94,145.17h12.17c-0.09-4.14-2.01-6.21-5.79-6.21
			C307.32,138.97,305.2,141.04,304.94,145.17z"/>
		<path d="M326.26,131.82h2.49l0.86,3.82h6.08v3.37h-5.46v13.55c0,2.2,0.91,3.3,2.72,3.3h2.74v3.37h-3.77
			c-3.77,0-5.66-2.12-5.66-6.36V131.82z"/>
		<path d="M340.5,158.12v-3.6c2.64,0.9,5.31,1.35,8.01,1.35c3.58,0,5.38-1.12,5.38-3.37c0-2.1-1.25-3.15-3.75-3.15h-3.21
			c-4.86,0-7.28-2.32-7.28-6.97c0-4.5,3.12-6.74,9.36-6.74c2.69,0,5.35,0.38,7.99,1.12v3.6c-2.64-0.9-5.31-1.35-7.99-1.35
			c-3.74,0-5.61,1.12-5.61,3.37c0,2.1,1.18,3.15,3.54,3.15h3.21c5.14,0,7.71,2.32,7.71,6.97c0,4.5-3.11,6.74-9.34,6.74
			C345.82,159.24,343.15,158.87,340.5,158.12z"/>
	</g>
</g>
<g id="Layer_2">
	<g>
		<path d="M209.84,83.49c-15.9,8.34-33.85,11.71-51.33,15.02c-28.77,6.03-43.07,37.25-42.62,64.36c0.02,1.36,0.56,3.35-1.54,3.59
			c-8.43-1.93,2.79-37.99,6.82-43.53c17.74-37.73,56.71-24.95,86.21-43.83c3.58-1.67,6.25-8.32,10.22-7.47
			c4.39,1.85-5.29,20.84-6,25.34c-9.14,22.37-19.71,51.67-45.29,59.12c-14.54,3.06-26.73-1.47-36.89-12.05
			c-1.06-1.1-2.48-2.22-1.18-3.68c1.27-1.42,2.71-0.23,3.92,0.64c12.34,10.91,32.39,17.54,45.67,4.4
			c17.14-16.92,26.52-38,33.18-60.6C211.1,83.95,211.54,82.77,209.84,83.49z"/>
		<path d="M173.53,72.73c9.2-0.1,18.45,1.12,27.59-0.91c1.44-0.32,3.36-0.52,3.62,1.42c1.06,9.12-49.17,2.33-58.28,5.13
			c-48.49,2.91-31.06,57.94-40.53,43.27C104.28,78.7,137.31,70.02,173.53,72.73z"/>
	</g>
	<rect x="239.36" y="71.62" width="2" height="94.84"/>
	<line x1="240.36" y1="71.62" x2="240.36" y2="166.46"/>
	<g>
	</g>
	<g>
	</g>
	<g>
	</g>
	<g>
	</g>
	<g>
	</g>
	<g>
	</g>
	<g>
	</g>
	<g>
	</g>
	<g>
	</g>
	<g>
	</g>
	<g>
	</g>
	<g>
	</g>
	<g>
	</g>
	<g>
	</g>
	<g>
	</g>
</g>
</svg>
